<svg width="24" height="24" viewBox="0 0 24 24" fill="none" xmlns="http://www.w3.org/2000/svg">
<path d="M12 3C9.31 3 7.41 4.22 7.41 4.22L6 9H18L16.59 4.22C16.59 4.22 14.69 3 12 3ZM12 11C9.27 11 5.39 11.54 5.13 11.59C4.09 11.87 3.25 12.15 2.59 12.41C1.58 12.75 1 13 1 13H23C23 13 22.42 12.75 21.41 12.41C20.75 12.15 19.89 11.87 18.84 11.59C18.84 11.59 14.82 11 12 11ZM7.5 14C6.57174 14 5.6815 14.3687 5.02513 15.0251C4.36875 15.6815 4 16.5717 4 17.5C4 18.4283 4.36875 19.3185 5.02513 19.9749C5.6815 20.6313 6.57174 21 7.5 21C8.42826 21 9.3185 20.6313 9.97487 19.9749C10.6313 19.3185 11 18.4283 11 17.5C11 17.34 11 17.18 10.97 17.03C11.29 16.96 11.63 16.9 12 16.91C12.37 16.91 12.71 16.96 13.03 17.03C13 17.18 13 17.34 13 17.5C13 18.4283 13.3687 19.3185 14.0251 19.9749C14.6815 20.6313 15.5717 21 16.5 21C17.4283 21 18.3185 20.6313 18.9749 19.9749C19.6313 19.3185 20 18.4283 20 17.5C20 16.5717 19.6313 15.6815 18.9749 15.0251C18.3185 14.3687 17.4283 14 16.5 14C15.03 14 13.77 14.9 13.25 16.19C12.93 16.09 12.55 16 12 16C11.45 16 11.07 16.09 10.75 16.19C10.23 14.9 8.97 14 7.5 14ZM7.5 15C8.16304 15 8.79893 15.2634 9.26777 15.7322C9.73661 16.2011 10 16.837 10 17.5C10 18.163 9.73661 18.7989 9.26777 19.2678C8.79893 19.7366 8.16304 20 7.5 20C6.83696 20 6.20107 19.7366 5.73223 19.2678C5.26339 18.7989 5 18.163 5 17.5C5 16.837 5.26339 16.2011 5.73223 15.7322C6.20107 15.2634 6.83696 15 7.5 15ZM16.5 15C17.163 15 17.7989 15.2634 18.2678 15.7322C18.7366 16.2011 19 16.837 19 17.5C19 18.163 18.7366 18.7989 18.2678 19.2678C17.7989 19.7366 17.163 20 16.5 20C15.837 20 15.2011 19.7366 14.7322 19.2678C14.2634 18.7989 14 18.163 14 17.5C14 16.837 14.2634 16.2011 14.7322 15.7322C15.2011 15.2634 15.837 15 16.5 15Z" fill="#14B8A6"/>
</svg>
