<svg width="65" height="65" viewBox="0 0 65 65" fill="none" xmlns="http://www.w3.org/2000/svg">
<rect width="65" height="65" rx="10" fill="white"/>
<line x1="32.3123" y1="55.1962" x2="32.3123" y2="20.445" stroke="#1FD8A4" stroke-width="3.86124"/>
<circle cx="32.6985" cy="55.1962" r="2.89593" fill="white" stroke="#1FD8A4" stroke-width="1.93062"/>
<path d="M29.9094 22.9184C26.7673 17.4762 28.2823 10.6233 33.2178 6.97415L35.3199 10.6152C38.4619 16.0573 36.947 22.9102 32.0115 26.5594L29.9094 22.9184Z" fill="white" stroke="#1FD8A4" stroke-width="2.79064"/>
<path d="M40.8069 48.869V25.7015" stroke="#1FD8A4" stroke-width="3.86124"/>
<circle cx="41.1931" cy="48.869" r="2.89593" fill="white" stroke="#1FD8A4" stroke-width="1.93062"/>
<path d="M41.657 20.4781C43.2835 14.4082 49.2005 10.6337 55.2707 11.5433L54.1826 15.6043C52.5561 21.6742 46.6391 25.4487 40.5689 24.5392L41.657 20.4781Z" fill="white" stroke="#1FD8A4" stroke-width="2.79064"/>
<path d="M24.2968 48.2311V25.0636" stroke="#1FD8A4" stroke-width="3.86124"/>
<circle cx="24.2037" cy="48.231" r="2.89593" fill="white" stroke="#1FD8A4" stroke-width="1.93062"/>
<path d="M20.6632 23.8522C14.4746 22.761 10.1987 17.1955 10.5758 11.0691L14.7162 11.7991C20.9048 12.8904 25.1806 18.4559 24.8036 24.5823L20.6632 23.8522Z" fill="white" stroke="#1FD8A4" stroke-width="2.79064"/>
</svg>
