<svg width="447" height="398" viewBox="0 0 447 398" fill="none" xmlns="http://www.w3.org/2000/svg">
<g clip-path="url(#clip0_135_608)">
<path d="M411.806 96.7482C361.072 12.1232 253.9 -22.2043 148.499 14.7672C92.7769 34.313 39.0505 73.4759 12.425 149.308C-35.1709 284.866 64.7628 328.159 130.109 341.958C161.706 348.63 191.466 359.837 218.661 375.097C267.586 402.549 354.188 426.875 419.491 312.522C466.823 229.638 445.599 153.117 411.806 96.7482Z" fill="#F2F2F2"/>
<path d="M117.669 113.491C117.527 112.146 117.24 110.829 116.815 109.572C116.761 109.335 116.666 109.113 116.537 108.922C116.407 108.731 116.246 108.574 116.063 108.462C115.819 108.386 115.562 108.382 115.317 108.452L111.484 109.155C111.164 109.172 110.856 109.315 110.61 109.562C110.111 110.191 110.602 111.204 110.587 112.072C110.57 113.049 109.846 113.841 109.062 114.103C108.261 114.297 107.435 114.285 106.638 114.067L101.279 113.069C102.858 112.465 104.262 111.341 105.333 109.826C106.038 108.825 106.414 106.955 105.394 106.481C105.092 106.381 104.776 106.351 104.464 106.391C102.036 106.414 100.125 103.984 97.8526 102.961C96.398 102.348 94.8189 102.303 93.3413 102.831C91.8638 103.359 90.5633 104.433 89.6259 105.901L92.4805 106.066C92.749 106.048 93.0153 106.133 93.2408 106.309C93.8664 106.925 93.0887 108.108 93.1768 109.073C93.2913 110.326 94.6797 110.594 95.7263 110.721C96.773 110.848 98.1007 111.867 97.5973 112.974C92.3369 115.146 86.9838 108.728 81.4592 109.518C80.061 109.718 78.7407 110.377 77.3756 110.791C69.0363 113.32 60.4151 106.572 51.8961 108.001C50.0022 108.388 48.1409 108.976 46.3341 109.759C45.1747 110.216 43.9653 110.709 43.1228 111.767C42.2804 112.825 41.9598 114.635 42.7578 115.742C40.5581 115.959 38.3437 115.707 36.2175 114.997C36.7924 115.38 37.2708 115.941 37.6022 116.623C37.9337 117.304 38.1061 118.079 38.1013 118.868C34.6667 119.539 31.323 120.761 28.1602 122.501C28.7505 123.678 29.44 124.779 30.2178 125.787L25.8696 129.135C27.3386 129.579 28.0981 131.98 27.2439 133.48C28.7671 132.667 29.7111 130.566 31.3399 130.14C32.407 129.861 33.4928 130.384 34.505 130.876C35.5173 131.367 36.63 131.844 37.6779 131.475C38.7258 131.106 39.4988 129.477 38.8329 128.44C43.3121 126.873 47.9412 126.006 52.6055 125.86C52.9654 125.806 53.3303 125.889 53.6486 126.098C54.2558 126.603 54.096 127.693 54.0633 128.578C54.0306 129.463 54.606 130.626 55.2659 130.227C54.4896 131.034 55.1532 132.553 55.898 133.402C56.6427 134.25 57.5404 135.421 57.0844 136.525C56.9654 136.813 56.7636 137.043 56.6491 137.334C56.3111 138.192 56.8477 139.192 57.4807 139.762C58.1137 140.332 58.889 140.73 59.3287 141.519C59.7684 142.308 59.5687 143.689 58.7825 143.8L56.5477 140.398C55.7842 141.347 55.2608 142.536 55.0381 143.828C57.4079 146.15 57.7643 150.876 55.7804 153.67C54.7665 155.098 53.3248 155.965 52.0664 157.079C50.8081 158.193 49.6437 159.779 49.6468 161.653C49.6523 164.893 49.4315 167.902 50.4441 170.905C52.3114 176.443 54.4673 181.834 56.8989 187.048C57.5375 188.417 58.3628 189.917 59.6563 190.153C58.0215 185.382 56.5498 180.537 55.2413 175.618C56.0936 175.622 57.0785 175.703 57.5781 176.531C57.9918 177.216 57.9029 178.148 58.0315 178.98C58.195 179.786 58.4676 180.554 58.8386 181.254L66.6455 197.924C67.2926 199.305 68.035 200.789 69.2719 201.348C70.0627 201.706 70.9776 201.639 71.7055 202.154C72.276 202.558 72.6603 203.274 73.2419 203.655C74.8864 204.73 77.1734 202.668 78.7103 203.952C79.1497 204.319 79.4293 204.902 79.8342 205.322C81.2536 206.796 83.5821 205.81 85.2207 206.909C86.2767 207.618 86.824 209.034 87.3873 210.318C88.7983 213.534 91.0813 216.685 94.105 216.941C95.0549 217.021 96.0251 216.806 96.9535 217.059C97.882 217.312 98.796 218.283 98.6469 219.411C98.3914 221.343 99.188 223.46 98.9741 225.399C98.5844 228.933 94.403 230.486 94.0438 234.024C93.9652 234.799 94.0883 235.598 93.9344 236.357C93.7458 237.286 93.1635 238.043 92.9566 238.967C92.5645 240.717 93.6108 242.459 94.7603 243.637C95.9097 244.815 97.2808 245.83 97.9092 247.479C98.5735 249.222 98.2472 251.254 98.4632 253.152C98.9348 257.296 101.921 260.368 104.994 262.349C105.93 262.953 106.936 263.537 107.542 264.584C108.333 265.951 108.254 267.752 108.518 269.385C109.165 273.384 111.974 276.679 112.053 280.752C112.11 283.646 110.768 286.272 109.966 289.003C109.214 291.62 108.942 294.4 109.168 297.154C109.395 299.908 110.114 302.572 111.277 304.963C111.877 306.177 112.594 307.321 113.018 308.637C113.775 310.986 113.53 313.656 114.228 316.031C115.151 319.171 117.687 321.764 117.444 325.08C118.596 327.946 121.139 329.355 123.695 330.208L128.278 331.737C129.155 332.029 130.072 332.325 130.965 332.113C131.859 331.901 132.711 331.011 132.688 329.92C130.441 329.313 128.122 328.667 126.27 327.025C124.417 325.384 123.148 322.461 123.851 319.831C124.177 318.612 124.87 317.204 124.211 316.197C123.834 315.62 123.144 315.469 122.718 314.943C122.054 314.122 122.282 312.743 122.76 311.753C123.237 310.763 123.927 309.878 124.119 308.758C124.217 308.132 124.152 307.485 123.933 306.904C123.715 306.323 123.353 305.836 122.898 305.508C123.747 305.123 124.52 304.529 125.166 303.763C125.762 302.947 126.038 301.688 125.568 300.76C126.962 300.972 128.607 301.076 129.521 299.798C130.252 298.778 130.202 297.253 129.913 295.953C129.624 294.654 129.137 293.393 129.121 292.048C132.336 292.231 135.557 292.1 138.753 291.657C138.291 289.791 137.241 288.214 135.825 287.261C137.272 286.967 138.591 284.89 139.049 283.217C139.506 281.545 139.389 279.723 139.107 277.996C138.998 277.551 138.983 277.081 139.063 276.628C139.226 276.005 139.737 275.625 140.209 275.3L147.395 270.354C147.823 270.096 148.212 269.752 148.544 269.337C149.297 268.277 149.185 266.677 148.8 265.363C148.414 264.05 147.797 262.815 147.648 261.435C147.204 257.305 150.892 254.343 152.136 250.456C152.624 248.93 152.724 247.272 152.819 245.642C152.92 243.892 152.928 241.858 151.806 240.73C150.731 239.649 149.052 239.89 147.927 238.884C146.896 237.962 146.54 236.171 145.413 235.426C144.39 234.749 143.107 235.179 141.969 234.861C139.966 234.301 138.705 231.533 136.659 231.277C135.505 231.132 134.198 231.809 133.252 231.003C132.418 230.293 132.385 228.865 132.226 227.654C131.948 225.772 131.195 224.037 130.069 222.683C128.943 221.329 127.499 220.422 125.929 220.082C124.739 219.853 123.443 219.94 122.431 219.156C121.405 218.362 120.935 216.876 120.13 215.776C118.831 214.004 116.787 213.374 114.872 212.835L107.082 210.639C105.699 210.25 103.916 210.043 103.174 211.495C102.954 212.048 102.799 212.634 102.712 213.238C102.434 214.329 101.874 215.287 101.113 215.973C100.353 216.66 99.4301 217.039 98.478 217.058C97.8252 215.723 96.7674 214.742 95.5256 214.319C94.7357 214.055 93.8901 214.026 93.1367 213.638C92.7264 213.398 92.3613 213.06 92.0637 212.645C91.7661 212.23 91.5424 211.746 91.4061 211.224C91.2698 210.702 91.2238 210.151 91.271 209.607C91.3183 209.063 91.4577 208.536 91.6807 208.058C92.1299 207.1 92.3033 205.99 92.1743 204.902C92.0453 203.813 91.621 202.806 90.967 202.036C89.6422 200.61 87.7258 200.265 85.9494 200.408C85.4842 199.191 86.2621 197.818 87.1003 196.934C87.9386 196.05 88.9566 195.18 89.1391 193.86C89.4263 191.782 87.2152 190.205 85.5363 190.824C83.8575 191.443 82.7859 193.398 82.0776 195.325C81.6712 196.43 81.3257 197.595 80.6846 198.527C80.0436 199.459 79.0112 200.126 78.0348 199.827C76.6524 199.404 76.1185 197.435 75.8125 195.764C75.4021 193.523 74.9892 191.251 75.0752 188.958C75.1612 186.666 75.8059 184.312 77.2161 182.76C79.5141 180.232 83.0393 180.479 86.1406 180.883C85.4079 179.893 85.589 178.226 86.3729 177.294C86.7868 176.853 87.284 176.54 87.8217 176.382C88.3593 176.224 88.921 176.225 89.4581 176.386C90.3926 176.619 91.2345 177.222 91.8481 178.099C92.7294 179.387 92.9801 181.126 93.6462 182.587C94.3123 184.049 95.8102 185.296 97.0362 184.512C98.0952 183.835 98.2632 182.074 97.9997 180.671C97.7361 179.267 97.1764 177.902 97.2718 176.468C97.454 173.731 99.8207 172.084 101.909 170.957C103.998 169.83 106.389 168.314 106.72 165.597C106.731 165.065 106.815 164.539 106.968 164.04C107.199 163.598 107.521 163.236 107.903 162.986C113.998 158.157 120.194 153.27 127.161 150.631C127.523 150.494 127.566 150.647 127.935 150.539C128.452 150.181 128.11 149.19 127.614 148.791C127.119 148.392 126.456 148.086 126.33 147.386C126.238 146.872 126.491 146.367 126.556 145.847C126.718 144.569 125.442 143.388 124.451 143.899C123.892 143.011 124.999 141.979 125.894 141.683C128.583 140.796 131.343 140.256 134.127 140.071C134.448 140.01 134.777 140.077 135.064 140.262C135.531 140.651 135.472 141.541 135.14 142.095C134.809 142.65 134.293 142.998 133.88 143.467C133.429 143.993 133.107 144.659 132.95 145.39C132.793 146.121 132.806 146.89 132.988 147.613C134.442 148.499 136.022 149.411 137.632 149.099C139.242 148.787 140.671 146.619 139.914 144.887C139.209 143.275 137.093 142.911 136.729 141.144C136.302 139.075 138.746 137.234 138.196 135.208C137.955 134.32 137.216 133.797 136.65 133.157C135.981 132.371 135.526 131.361 135.345 130.259C135.164 129.158 135.264 128.017 135.634 126.985C134.712 127.18 133.764 127.106 132.87 126.771C131.976 126.436 131.162 125.848 130.497 125.058C129.268 123.572 128.288 121.227 126.543 121.293C124.941 121.354 123.562 123.594 122.065 122.91C121.697 122.742 121.308 122.4 120.951 122.601C120.834 122.692 120.736 122.813 120.664 122.957C120.592 123.1 120.548 123.261 120.536 123.427C120.156 125.608 120.81 128.092 119.819 129.977C118.74 132.027 116.244 132.311 114.936 134.16C114.226 135.164 113.951 136.517 113.298 137.575C112.646 138.633 111.261 139.306 110.477 138.384C110.862 137.435 110.967 136.358 110.776 135.329C110.584 134.299 110.106 133.378 109.421 132.716C108.694 132.148 107.91 131.691 107.088 131.356C106.169 130.89 105.296 130.306 104.482 129.615C104.074 129.32 103.743 128.895 103.525 128.387C103.352 127.752 103.376 127.063 103.59 126.447C103.987 125.082 104.688 123.873 105.616 122.95C106.545 122.028 107.666 121.427 108.858 121.213C109.901 121.043 111.115 121.102 111.805 120.15C112.17 119.646 112.362 118.884 112.892 118.68C113.231 118.598 113.583 118.65 113.895 118.828L117.787 120.47C118.222 120.705 118.7 120.8 119.174 120.745C119.409 120.707 119.624 120.564 119.774 120.344C119.925 120.124 120.001 119.844 119.987 119.561C119.862 118.786 118.868 118.414 118.958 117.632C119.009 117.379 119.123 117.15 119.284 116.976C120.689 115.184 122.407 113.786 124.315 112.883C126.223 111.98 128.274 111.594 130.321 111.752C130.812 112.719 130.035 113.864 129.389 114.69C128.742 115.515 128.223 116.991 129.005 117.626C129.325 117.822 129.681 117.918 130.041 117.906C130.999 118.061 131.93 118.4 132.799 118.909C134.144 119.61 135.464 120.378 136.757 121.212C136.643 120.19 136.534 119.113 136.857 118.157C137.18 117.201 138.099 116.451 138.901 116.824C139.674 117.182 140.071 118.41 140.895 118.522C141.994 118.672 142.427 116.726 141.968 115.52C141.509 114.314 140.601 113.303 140.525 111.981C140.474 111.088 140.757 109.982 140.162 109.441C139.951 109.279 139.71 109.178 139.461 109.146L124.612 105.871C123.731 105.677 122.457 105.826 122.418 106.899C122.396 107.499 122.842 108.091 122.645 108.642C122.433 109.231 121.74 109.177 121.235 109.385C120.451 109.708 120.058 110.823 120.133 111.812C120.271 112.795 120.588 113.73 121.063 114.548C120.097 114.064 118.635 113.975 117.669 113.491Z" fill="#3F3D56"/>
<path d="M105.822 98.3822C104.885 98.0108 103.876 97.9935 102.932 98.3327C101.987 98.6718 101.152 99.3511 100.54 100.278C100.296 100.664 100.09 101.196 100.295 101.614C100.588 102.213 101.336 101.976 101.887 101.762C102.698 101.415 103.579 101.39 104.403 101.69C104.92 101.903 105.383 102.28 105.903 102.485C106.156 102.611 106.433 102.653 106.705 102.606C106.976 102.558 107.232 102.423 107.444 102.215C107.801 101.779 107.823 101.1 107.824 100.489C107.849 100.285 107.835 100.077 107.784 99.8793C107.733 99.682 107.646 99.5009 107.529 99.3491C107.321 99.2046 107.087 99.1217 106.847 99.1072C106.309 98.9879 105.822 98.6473 105.472 98.1442" fill="#3F3D56"/>
<path d="M111.176 96.5954C110.966 96.5817 110.757 96.6329 110.569 96.744C110.381 96.8551 110.219 97.0224 110.101 97.2298C109.982 97.4371 109.91 97.6777 109.891 97.9282C109.872 98.1787 109.907 98.4308 109.993 98.6603C110.637 98.8706 111.309 98.9232 111.97 98.8148C112.3 98.7534 112.607 98.5765 112.853 98.3063C113.099 98.0361 113.272 97.6847 113.352 97.2964C112.574 97.4661 111.771 97.2823 111.1 96.7808" fill="#3F3D56"/>
<path d="M129.139 93.6111C127.387 94.0575 125.686 94.7503 124.07 95.6751C124.832 96.0261 125.479 96.6611 125.917 97.4866C126.355 98.3121 126.56 99.2844 126.502 100.26C126.434 100.635 126.442 101.024 126.526 101.394C126.712 101.935 127.251 102.138 127.725 102.277C128.577 102.587 129.467 102.724 130.357 102.679C130.802 102.651 131.234 102.491 131.615 102.212C131.995 101.934 132.311 101.546 132.535 101.084C132.664 100.645 132.815 100.216 132.988 99.8001C134.125 97.7248 137.502 100.234 138.722 98.2284C139.152 97.5218 139.113 96.4583 139.674 95.8984C139.963 95.6545 140.299 95.5008 140.651 95.4511C143.106 94.8666 145.585 94.4434 148.078 94.1833C149.259 94.0601 150.799 93.5517 150.808 92.1305C146.359 91.0831 141.746 91.827 137.686 94.2465C136.223 95.1248 134.289 96.9722 132.879 95.8079C132.352 95.3719 132.378 94.198 131.652 93.7078C130.91 93.2066 129.927 93.4105 129.139 93.6111Z" fill="#3F3D56"/>
<path d="M143.689 96.8726L145.777 97.3537C145.393 97.3333 145.009 97.4114 144.652 97.5828C144.295 97.7542 143.972 98.0149 143.706 98.3476C143.439 98.6803 143.235 99.0774 143.106 99.5122C142.978 99.947 142.928 100.41 142.961 100.869C144.917 101.653 147.049 100.89 149.109 100.994C151.169 101.099 153.567 102.863 153.215 105.298C153.109 106.035 152.754 106.771 152.938 107.484C153.068 107.985 153.436 108.34 153.643 108.801C154.076 109.761 153.73 110.976 153.184 111.848C152.637 112.721 151.902 113.418 151.422 114.346C150.228 116.653 150.907 119.636 151.618 122.213C151.823 123.187 152.203 124.096 152.73 124.877C153.784 126.219 155.5 126.336 157.038 126.363C158.157 126.383 159.439 126.316 160.146 125.277C161.07 123.92 160.424 121.803 161.032 120.211C161.585 118.765 162.992 118.144 164.267 117.704C166.604 116.898 168.984 116.213 171.193 114.995C173.935 113.483 176.498 111.127 179.512 110.932C180.358 110.878 181.225 110.997 182.039 110.719C182.854 110.442 183.628 109.598 183.566 108.585C183.513 107.72 182.903 107.085 182.426 106.433C181.948 105.781 181.574 104.778 182.012 104.088L189.913 102.319C189.353 100.489 188.917 98.0799 190.204 96.8891C190.668 96.4594 191.29 96.2877 191.685 95.7683C192.359 94.8829 192.02 93.3579 191.242 92.605C190.464 91.8521 189.413 91.6773 188.416 91.5781C184.952 91.2332 181.468 91.4611 177.997 91.6891C171.212 92.135 164.427 92.5808 157.642 93.0266C156.276 93.1163 154.699 92.9792 153.446 93.5378C152.385 94.0107 151.631 94.8787 150.418 95.1837C148.179 95.7467 145.715 95.3657 143.689 96.8726Z" fill="#3F3D56"/>
<path d="M181.104 116.661C180.891 116.62 180.673 116.68 180.496 116.826C180.378 116.981 180.309 117.179 180.298 117.388C180.163 118.31 180.324 119.258 180.748 120.044C180.964 120.429 181.262 120.739 181.611 120.939C181.96 121.14 182.348 121.225 182.734 121.185C183.674 121.042 184.367 120.08 185.232 119.611C186.564 118.888 192.223 117.762 188.309 115.227C186.96 114.353 186.088 115.124 185.025 115.699C183.815 116.441 182.459 116.774 181.104 116.661Z" fill="#3F3D56"/>
<path d="M215.39 95.4415C214.933 95.6654 214.551 96.0644 214.303 96.5762C214.189 96.8361 214.162 97.1387 214.229 97.4214C214.295 97.7041 214.45 97.9452 214.661 98.0949C214.832 98.1691 215.013 98.2035 215.194 98.1963L217.053 98.2629C217.842 98.2911 218.829 98.4927 219.041 99.4048C219.198 100.082 218.846 100.952 219.271 101.436C219.454 101.606 219.673 101.708 219.903 101.732C220.516 101.92 221.155 101.945 221.776 101.804C223.128 101.369 222.418 100.38 222.844 99.4992C223.495 98.1513 223.382 98.9672 224.531 98.1947C225.379 97.6242 226.475 96.5893 225.767 95.1353C224.536 92.6068 217.206 94.3553 215.39 95.4415Z" fill="#3F3D56"/>
<path d="M252.074 94.1703L250.994 94.3429C248.561 94.7322 246.113 95.1251 243.769 96.0011C244.784 96.482 245.848 96.7951 246.933 96.9318C247.531 96.9669 248.124 97.068 248.706 97.2338C249.741 97.6032 250.784 98.5572 251.785 98.0685C252.405 97.7655 252.607 96.9915 253.121 96.5813C253.476 96.2981 254.821 95.8396 254.971 95.5537C256.187 93.2424 253.008 94.0208 252.074 94.1703Z" fill="#3F3D56"/>
<path d="M256.812 100.05C255.371 101.016 254.033 102.19 252.83 103.546C252.323 104.117 251.805 104.828 251.851 105.66C251.912 106.767 252.895 107.408 253.747 107.841L257.197 109.592C257.615 108.884 257.232 107.908 256.8 107.213C256.367 106.519 255.853 105.715 256.044 104.878C256.262 103.924 257.233 103.599 258.047 103.435C259.373 103.167 262.951 103.188 262.521 100.626C262.014 97.6077 258.144 99.1579 256.812 100.05Z" fill="#3F3D56"/>
<path d="M256.119 270.879C255.79 272.018 255.759 273.361 256.327 274.356C256.965 275.473 258.241 275.889 259.344 275.606C260.444 275.255 261.423 274.5 262.146 273.447C262.806 272.565 263.35 271.566 263.757 270.485C264.325 268.801 264.726 267.043 264.951 265.247L266.022 258.506C266.262 256.999 266.252 252.38 263.942 253.885C263.311 254.296 261.85 257.542 261.188 258.462C259.996 260.122 259.839 261.731 259.211 263.741C258.425 266.259 256.845 268.357 256.119 270.879Z" fill="#3F3D56"/>
<path d="M378.138 305.378C377.382 305.024 376.648 304.605 375.943 304.125C375.235 306.457 374.859 308.914 374.83 311.395L380.002 307.886C380.781 307.359 381.663 306.625 381.646 305.554C381.653 305.421 381.63 305.289 381.58 305.171C381.529 305.053 381.453 304.953 381.36 304.883C381.245 304.827 381.12 304.81 380.997 304.832C380.23 304.908 379.531 305.361 378.807 305.675C378.084 305.99 377.238 306.156 376.574 305.689" fill="#3F3D56"/>
<path d="M405.425 307.461C404.857 307.646 404.303 307.885 403.766 308.174C402.579 308.898 401.772 310.273 400.704 311.227C399.681 312.139 398.451 312.64 397.243 313.128C396.887 313.504 397.051 314.262 397.436 314.593C397.851 314.876 398.327 315.004 398.803 314.961C400.058 314.994 401.38 315.009 402.479 314.282C403.098 313.801 403.678 313.249 404.21 312.636C405.495 311.35 407.039 310.502 408.566 309.682C409.123 309.431 409.637 309.062 410.085 308.594C411.045 307.46 411.113 305.711 409.728 305.325C408.61 305.014 406.49 307.048 405.425 307.461Z" fill="#3F3D56"/>
<path d="M417.482 298.02C417.544 297.24 417.458 296.453 417.229 295.719C417 294.985 416.635 294.322 416.162 293.782C416.147 295.343 416.108 297.006 415.376 298.297C414.854 299.216 414.036 299.838 413.464 300.714C412.892 301.59 412.638 302.978 413.309 303.747C413.738 304.138 414.26 304.353 414.798 304.362C416.133 304.55 417.678 304.655 418.615 303.499C419.126 302.868 419.374 301.934 419.997 301.47C420.23 301.353 420.437 301.175 420.604 300.949C420.861 300.459 420.453 299.813 419.992 299.636C419.532 299.459 419.025 299.542 418.562 299.374C418.1 299.207 417.675 298.583 417.913 298.079" fill="#3F3D56"/>
<path d="M396.053 240.791C395.353 240.995 394.628 241.046 393.912 240.942C392.724 240.68 391.799 239.607 390.839 238.726C388.559 236.645 385.786 235.484 382.92 235.41C380.313 235.351 377.681 236.198 375.121 235.607C375.288 236.722 376.084 237.559 376.934 238.056C377.784 238.553 378.721 238.803 379.575 239.29C380.942 240.078 382.026 241.43 382.629 243.099C382.904 243.868 383.077 244.705 383.493 245.377C384.345 246.75 385.958 247.052 387.382 246.939C389.238 246.793 391.177 246.153 392.905 246.982C394.226 247.616 395.171 249.002 396.275 250.08C397.378 251.158 398.932 251.958 400.199 251.18C398.883 250.67 397.738 249.668 396.93 248.322C396.123 246.976 395.695 245.356 395.71 243.698C396.953 243.835 400.531 243.782 400.339 241.252C400.175 239.107 397.12 240.56 396.053 240.791Z" fill="#3F3D56"/>
<path d="M379.8 258.24C380.02 256.79 381.227 255.509 380.851 254.105C380.591 253.135 379.652 252.655 378.802 252.631C377.952 252.607 377.116 252.911 376.266 252.94C375.713 252.904 375.158 252.914 374.606 252.968C372.918 253.3 371.878 255.421 370.287 256.175C369.32 256.633 368.233 256.546 367.228 256.863C364.944 257.582 363.5 260.168 361.904 262.253C359.325 265.607 355.965 267.956 352.26 268.995C350.962 269.355 349.566 269.586 348.535 270.596C347.168 271.935 346.832 274.229 346.528 276.312C345.688 282.067 344.404 287.715 342.693 293.185L348.115 294.015C349.146 294.172 350.214 294.327 351.207 293.961C351.928 293.635 352.612 293.198 353.241 292.662C355.655 290.865 358.357 289.696 361.173 289.23C362.592 288.997 364.081 288.954 365.413 289.586C366.746 290.219 367.889 291.653 368 293.366C368.576 293.151 369.19 293.128 369.777 293.299C370.363 293.47 370.899 293.828 371.329 294.336C372.178 295.373 372.734 296.703 372.918 298.139C373.061 299.028 373.204 300.094 373.892 300.467C374.454 300.771 375.098 300.443 375.712 300.384C377.796 300.184 379.526 303.098 381.575 302.596C383.772 302.058 384.311 298.114 386.455 297.323C387.686 296.87 389.413 297.421 390.002 296.049C390.522 294.839 389.485 293.443 389.592 292.088C389.724 290.42 391.365 289.712 392.631 289C396.994 286.546 399.064 279.507 396.95 274.316C395.697 271.24 393.233 268.819 392.777 265.44C392.427 262.84 393.282 259.809 391.899 257.763C391.196 256.722 390.005 256.147 389.586 254.905C389.323 254.123 389.429 253.236 389.287 252.41C389.145 251.584 388.544 250.72 387.864 250.934C385.889 251.556 385.258 258.869 384.201 260.646C382.593 263.347 379.294 261.568 379.8 258.24Z" fill="#3F3D56"/>
<path d="M343.293 243.554C342.618 243.327 341.881 243.104 341.234 243.428C340.588 243.752 340.21 244.891 340.729 245.455C344.79 245.266 348.875 245.077 352.901 245.738C357.54 246.5 362.131 248.387 366.79 247.832C364.128 246.89 361.423 246.138 358.688 245.578L354.127 244.534C352.903 244.226 351.667 243.997 350.423 243.848C347.821 243.59 345.851 244.414 343.293 243.554Z" fill="#3F3D56"/>
<path d="M347.358 226.602C347.021 226.568 346.603 226.539 346.429 226.887C346.262 227.219 346.453 227.657 346.364 228.029C346.241 228.538 345.686 228.668 345.248 228.599C344.81 228.529 344.337 228.364 343.949 228.617C343.752 228.778 343.604 229.011 343.528 229.281C343.451 229.551 343.449 229.844 343.523 230.116C343.682 230.655 343.938 231.145 344.274 231.55C344.847 232.417 345.501 233.202 346.222 233.893C347.618 235.127 349.508 235.722 350.387 237.515C350.511 237.862 350.702 238.17 350.944 238.413C351.366 238.733 351.916 238.489 352.37 238.24L353.963 237.368C354.25 237.244 354.506 237.035 354.707 236.761C355.071 236.169 354.848 235.328 354.542 234.69C354.237 234.053 353.846 233.393 353.912 232.662C354.028 231.359 355.426 230.861 356.001 229.746C356.58 228.622 356.203 227.174 356.27 225.855C356.348 224.313 357.157 222.306 355.856 221.154C354.75 220.175 353.694 221.08 352.9 222.161C351.226 224.441 350.435 226.91 347.358 226.602Z" fill="#3F3D56"/>
<path d="M357.025 203.558C357.569 204.806 358.702 205.551 359.295 206.766C359.938 208.083 359.864 209.785 360.562 211.062C361.277 212.372 362.716 213.067 363.118 214.557C363.555 216.184 362.562 218.161 363.354 219.582C363.502 219.814 363.688 220.007 363.901 220.149C364.114 220.29 364.35 220.377 364.592 220.404C364.835 220.431 365.08 220.397 365.311 220.304C365.542 220.212 365.755 220.063 365.935 219.866C366.269 219.431 366.448 218.856 366.433 218.264C366.419 217.673 366.212 217.111 365.857 216.7C365.388 216.187 364.715 215.966 364.323 215.367C364.119 215.022 363.983 214.625 363.926 214.208C363.712 213.003 363.747 211.754 364.025 210.569C364.13 210.269 364.157 209.937 364.102 209.618C363.925 209.004 363.232 208.96 362.745 208.675C361.639 208.028 361.666 206.157 361.859 204.7C361.73 205.67 358.848 204.02 358.546 203.471C357.946 202.379 358.273 200.274 358.154 199.068C356.859 199.815 356.36 202.032 357.025 203.558Z" fill="#3F3D56"/>
<path d="M327.986 222.758C327.454 222.044 326.653 221.297 325.94 221.728C325.395 222.056 325.246 222.959 325.459 223.643C325.719 224.308 326.119 224.879 326.62 225.302C328.106 226.771 329.707 228.097 331.003 229.805C333.324 232.862 334.553 236.987 337.077 239.803C337.584 240.456 338.256 240.892 338.989 241.044C339.725 241.126 340.55 240.562 340.635 239.682C340.704 238.958 340.283 238.31 339.871 237.773C338.891 236.495 337.818 235.318 336.892 233.982C336.465 233.469 336.196 232.797 336.131 232.076C336.126 231.357 336.673 230.604 337.254 230.782C336.548 230.566 336.023 229.154 334.986 228.888C334.119 228.667 333.909 229.31 332.877 228.78C330.909 227.768 329.364 224.608 327.986 222.758Z" fill="#3F3D56"/>
<path d="M374.233 153.245C373.668 153.043 373.113 152.806 372.57 152.533C371.109 152.007 369.175 153.294 369.37 155.108C369.5 156.314 370.435 157.126 370.952 158.171C371.718 159.722 371.514 161.688 371.111 163.424C371.012 163.962 370.824 164.47 370.558 164.919C370.187 165.393 369.742 165.776 369.249 166.048C367.275 167.375 365.535 169.147 364.124 171.267C363.971 171.463 363.864 171.704 363.815 171.966C363.745 172.579 364.258 173.025 364.549 173.536C365.194 174.67 364.728 176.197 364.791 177.568C364.782 177.762 364.813 177.956 364.883 178.131C364.954 178.306 365.06 178.457 365.192 178.569C365.581 178.805 366.042 178.403 366.252 177.946C366.952 176.427 366.425 173.989 367.737 173.257C367.985 173.119 368.286 173.06 368.451 172.799C368.714 172.385 368.46 171.771 368.593 171.275C368.793 170.532 369.642 170.498 370.293 170.531C371.415 170.587 372.537 170.408 373.608 170.002C374.028 169.882 374.409 169.618 374.705 169.241C375.097 168.654 375.062 167.82 374.984 167.074C374.591 163.356 373.609 159.762 372.089 156.486C373.242 156.663 374.495 156.816 375.49 156.096C376.046 155.693 376.714 154.487 376.438 153.667C376.001 152.369 375.212 153.461 374.233 153.245Z" fill="#3F3D56"/>
<path d="M226.507 173.695C226.645 174.581 226.78 175.515 226.538 176.368C226.295 177.222 225.533 177.935 224.813 177.674C224.254 177.471 223.931 176.797 223.535 176.284C221.328 173.428 216.35 175.082 214.987 171.549C214.43 170.107 214.808 168.38 214.429 166.858C214.19 165.978 213.713 165.219 213.075 164.699C212.436 164.179 211.672 163.928 210.901 163.986C210.199 164.107 209.515 164.352 208.872 164.712C204.562 166.781 200.037 168.137 195.422 168.744C194.545 168.808 193.678 168.997 192.838 169.308C190.943 170.131 189.649 172.237 188.727 174.386C187.806 176.535 187.126 178.861 185.89 180.77C184.592 182.776 182.773 184.181 181.076 185.701C180.422 186.206 179.878 186.89 179.487 187.696C179.119 188.602 179.14 189.655 179.169 190.661L179.516 202.886C179.56 204.458 179.616 206.087 180.203 207.494C180.936 209.251 182.385 210.402 183.389 211.954C184.415 213.549 184.949 215.52 184.901 217.533C184.88 218.342 184.813 219.299 185.339 219.807C185.658 220.056 186.033 220.185 186.414 220.178L200.209 221.531C202.636 221.769 205.325 222.161 206.909 224.377C207.657 225.423 208.258 226.927 209.403 227.039C209.894 227.087 210.372 226.845 210.863 226.799C212.103 226.681 213.192 227.809 213.879 229.051C214.92 230.945 215.392 233.206 215.218 235.463C215.106 236.88 214.739 238.258 214.66 239.678C214.359 245.083 218.182 249.778 218.256 255.194C218.299 258.38 217.038 261.356 215.808 264.18C217.793 267.785 216.167 272.585 216.958 276.8C217.707 280.798 220.488 283.928 221.181 287.941C221.499 289.778 221.517 292.038 222.868 292.985C223.461 293.331 224.119 293.489 224.777 293.443C228.75 293.499 232.677 292.427 236.237 290.315C237.908 289.321 239.64 287.837 239.932 285.629C240.167 283.848 239.414 281.855 240.181 280.304C241.084 278.475 243.4 278.62 244.73 277.215C246.887 274.934 245.205 270.584 246.079 267.299C246.864 264.347 249.569 262.778 250.91 260.128C251.437 258.988 251.816 257.758 252.032 256.481C252.647 253.428 253.029 250.314 253.175 247.179C253.21 245.273 253.327 243.372 253.526 241.481C254.971 230.717 263.849 223.509 266.731 213.168C267.007 212.18 267.136 210.865 266.403 210.306C265.968 210.057 265.475 209.995 265.007 210.131L258.648 211.092C257.858 211.211 257.021 211.323 256.295 210.929C255.57 210.536 255.05 209.436 255.435 208.601C256.515 206.256 254.293 203.292 253.306 200.889C250.648 194.418 247.482 188.264 243.852 182.511C243.62 182.215 243.474 181.836 243.438 181.432L245.243 181.504C244.633 178.884 243.628 176.016 241.504 175.058C240.307 174.517 238.982 174.704 237.705 174.788C234.048 175.027 230.127 174.365 226.507 173.695Z" fill="#3F3D56"/>
<path d="M237.708 114.642C238.665 115.86 239.738 117.152 241.122 117.364C243.568 117.739 245.327 114.707 246.446 112.074C246.488 112.745 246.746 113.371 247.166 113.817C247.587 114.264 248.136 114.496 248.697 114.465C249.3 114.343 249.877 114.073 250.389 113.672C255.235 110.498 260.663 108.816 266.185 108.777C266.132 108.276 266.236 107.769 266.476 107.354C266.717 106.938 267.077 106.645 267.488 106.529C268.611 106.263 269.622 107.426 270.164 108.635C270.705 109.844 271.043 111.245 271.904 112.149C272.764 113.054 274.43 113.015 274.77 111.705C275.096 110.447 274.003 109.374 273.095 108.632C272.187 107.891 271.229 106.518 271.841 105.424C276.481 104.193 281.15 102.957 285.897 102.712C286.706 102.746 287.511 102.58 288.264 102.224C288.988 101.798 289.563 100.831 289.368 99.8928C288.332 100.185 287.247 100.1 286.251 99.65C285.256 99.1997 284.394 98.4042 283.777 97.3647C290.365 96.7131 297.372 96.1576 303.21 99.8734C303.911 101.676 300.34 103.176 301.296 104.802C301.6 105.321 302.211 105.382 302.74 105.394C306.797 105.484 310.878 105.572 314.889 104.838C316.355 104.57 317.836 104.191 319.308 104.409C321.759 104.771 323.856 106.732 326.267 107.371C327.249 107.631 328.35 107.64 329.177 106.956C330.005 106.271 330.36 104.713 329.682 103.823C331.953 101.156 335.722 101.817 338.717 103.094C341.713 104.371 344.551 106.431 347.722 106.715C349.995 106.92 352.3 106.186 354.547 106.652C355.959 106.945 357.273 107.698 358.653 108.161C361.262 109.035 364.023 108.851 366.733 108.893C373.646 109.005 380.484 110.633 386.908 113.698C387.744 114.025 388.509 114.567 389.151 115.287C389.748 116.054 390.053 117.246 389.652 118.179L383.014 117.017C383.639 118.492 385.257 118.744 386.571 119.253C387.885 119.762 389.247 121.502 388.458 122.859C387.034 122.316 385.744 124.022 385.025 125.592C384.305 127.162 383.429 129.042 381.937 129.138C380.601 129.224 378.985 127.86 378.114 129.077C379.317 130.897 380.348 132.871 381.186 134.964C382.046 137.113 382.659 139.82 381.496 141.753C381.313 142.098 381.036 142.356 380.711 142.483C379.762 142.771 379.145 141.378 378.464 140.534C377.605 139.47 376.307 139.169 375.145 138.67C373.983 138.171 372.758 137.19 372.667 135.714C372.611 134.796 373.015 133.942 373.313 133.094C373.814 131.663 374.033 130.114 373.953 128.566C373.888 127.32 373.597 126.024 372.85 125.154C372.104 124.284 370.816 124.008 370.014 124.805C369.641 125.177 369.341 125.771 368.856 125.794C367.998 125.833 367.339 124.04 366.649 124.652C366.73 125.304 366.617 125.97 366.33 126.532C364.271 128.679 361.107 127.771 358.453 128.529C357.19 128.962 355.982 129.595 354.858 130.411C354.438 130.626 354.081 130.986 353.831 131.444C353.5 132.216 353.865 133.205 354.449 133.718C355.069 134.174 355.765 134.458 356.487 134.552C359.724 135.287 363.008 136.424 365.563 138.916C368.118 141.408 369.794 145.528 368.985 149.355L362.603 142.045C362.845 145.114 362.983 148.192 363.015 151.279C363.057 151.882 362.988 152.488 362.813 153.055C362.358 154.26 361.125 154.665 360.044 154.931C359.744 155 359.458 155.143 359.208 155.353C358.957 155.563 358.746 155.834 358.588 156.149C358.431 156.464 358.331 156.815 358.295 157.179C358.259 157.543 358.288 157.912 358.379 158.262C358.763 159.762 359.72 160.932 360.597 162.097C361.474 163.263 362.336 164.587 362.451 166.151C362.566 167.714 361.582 169.476 360.276 169.367C359.286 169.285 358.551 168.222 358.129 167.146C357.707 166.069 357.456 164.87 356.821 163.955C354.901 161.187 350.587 162.373 348.867 159.421C348.428 160.018 348.124 160.738 347.983 161.515C347.843 162.292 347.87 163.099 348.062 163.86C348.863 163.259 349.958 163.817 350.56 164.69C351.161 165.562 351.445 166.681 351.917 167.661C352.554 168.984 353.568 170.156 353.657 171.68C353.634 172.256 353.642 172.834 353.682 173.408C353.84 174.332 354.49 174.994 354.942 175.766C355.992 177.561 355.94 180.028 355.263 182.065C354.586 184.102 353.37 185.805 352.166 187.455C350.062 190.338 347.915 193.203 345.421 195.597C344.709 196.28 343.95 196.952 343.507 197.907C343.063 198.862 343.041 200.202 343.722 200.929C343.234 200.958 342.36 201.245 341.873 201.275C341.702 198.931 341.664 196.576 341.761 194.227C339.838 193.12 337.767 196.084 338.015 198.624C338.264 201.164 339.796 203.203 340.888 205.4C341.686 207.007 342.279 208.881 342.012 210.724C341.746 212.567 340.373 214.267 338.819 214.104C336.347 213.846 335.313 209.591 332.865 209.104C332.649 209.044 332.422 209.071 332.22 209.181C331.857 209.42 331.794 210.003 331.773 210.499C331.673 212.935 331.586 215.468 332.38 217.714C333.54 221 336.538 223.759 335.909 227.246C332.521 225.359 330.76 220.804 329.96 216.43C329.16 212.055 329.027 207.463 327.593 203.327C326.505 205 324.217 203.617 323.222 201.863C322.279 200.199 321.698 198.275 320.784 196.589C319.869 194.903 318.467 193.393 316.791 193.301C315.034 193.204 313.51 194.649 312.17 196.015C311.068 197.138 309.936 198.305 309.292 199.858C308.354 202.117 308.6 204.78 308.554 207.303C308.506 210.03 308.023 212.907 306.473 214.904C304.922 216.9 302.06 217.595 300.35 215.796C299.457 214.857 299.024 213.453 298.639 212.106C296.783 205.612 295.237 198.997 294.009 192.292C293.722 193.822 292.601 195.794 291.53 194.893C291.289 194.651 291.095 194.35 290.958 194.011C288.961 189.952 285.261 187.518 281.523 186.058C277.786 184.599 273.853 183.918 270.157 182.314C268.085 181.414 266.107 180.233 264.26 178.793C263.789 179.622 263.514 180.588 263.464 181.589C263.415 182.59 263.592 183.589 263.977 184.479C264.797 186.22 266.652 187.226 268.24 186.618C269.061 186.304 269.754 185.621 270.569 185.284C271.383 184.946 272.476 185.112 272.832 186.052C273.173 186.953 272.658 188.042 272.913 188.982C273.303 190.413 275.104 190.523 275.734 191.826C276.202 192.796 275.817 194.083 275.148 194.865C274.479 195.647 273.586 196.076 272.769 196.62C270.119 198.387 268.234 201.403 265.918 203.749C263.602 206.095 260.334 207.808 257.573 206.303C258.231 202.309 254.262 199.377 253.532 195.401C253.292 194.093 253.417 192.703 253.073 191.427C252.577 189.581 251.21 188.312 250.089 186.912C248.729 185.197 247.67 183.172 246.974 180.958C246.277 178.744 245.958 176.385 246.034 174.02C246.095 172.377 246.347 170.707 246.034 169.106C245.722 167.504 244.616 165.954 243.245 166.027C240.114 166.192 236.17 166.472 234.528 163.272C233.941 162.131 233.686 160.458 234.534 159.583C235.132 158.966 236.014 159.024 236.8 159.117L243.854 159.949C245.504 160.143 247.287 160.304 248.703 159.27C250.119 158.236 250.732 155.492 249.421 154.275C248.463 153.387 246.747 153.435 246.469 152.022C246.237 150.845 247.324 149.509 246.737 148.526C246.316 147.821 245.37 148.016 244.796 148.545C244.223 149.074 243.807 149.847 243.165 150.247C242.04 150.949 240.695 150.281 239.484 149.827C238.273 149.373 236.649 149.334 236.062 150.682C235.405 152.19 236.644 154.166 235.992 155.677C235.13 157.675 232.211 156.537 231.001 158.256C229.612 160.227 231.946 163.168 231.478 165.687C230.88 166.042 230.215 166.205 229.548 166.16C228.882 166.115 228.237 165.864 227.676 165.431C227.124 164.981 226.684 164.36 226.403 163.634C226.122 162.908 226.01 162.105 226.08 161.309C226.196 160.176 226.689 159.019 226.358 157.948C226.091 157.083 225.366 156.567 224.692 156.121L217.837 151.58C217.201 152.995 218.005 154.75 219.012 155.813C220.018 156.876 221.278 157.676 221.939 159.075C222.358 160.044 222.451 161.168 222.201 162.218C221.952 163.267 221.377 164.162 220.595 164.721C220.497 164.802 220.386 164.857 220.268 164.881C220.151 164.906 220.031 164.9 219.916 164.863C219.806 164.786 219.711 164.683 219.635 164.561C219.559 164.439 219.505 164.3 219.475 164.153C218.265 160.442 216.449 156.784 213.546 154.846C210.643 152.908 206.471 153.307 204.567 156.571C204.115 157.347 203.812 158.231 203.418 159.051C201.325 163.407 196.838 165.469 192.646 165.335C192.236 165.362 191.828 165.247 191.471 165.004C190.793 164.443 190.824 163.253 190.927 162.274L191.368 158.118C191.456 157.284 191.584 156.362 192.135 155.841C192.911 155.107 194.032 155.57 195.021 155.553C195.77 155.511 196.49 155.194 197.084 154.644C197.678 154.095 198.116 153.34 198.34 152.482C198.54 151.615 198.539 150.7 198.337 149.834C198.134 148.968 197.739 148.185 197.193 147.569C196.74 147.058 196.131 146.417 196.371 145.729C196.466 145.539 196.595 145.376 196.749 145.252C196.903 145.128 197.077 145.046 197.26 145.011C199.037 144.393 200.914 144.231 202.661 143.501C204.407 142.772 206.101 141.279 206.515 139.118C206.642 138.455 206.7 137.653 207.196 137.324C207.445 137.198 207.712 137.133 207.983 137.132C208.93 136.97 209.792 136.39 210.4 135.504C211.008 134.619 211.317 133.493 211.267 132.348C212.104 131.646 213.277 132.162 214.087 132.908C214.897 133.654 215.612 134.639 216.597 134.961C218.434 135.56 220.208 133.611 222.112 133.602C222.912 133.598 223.741 133.937 224.494 133.612C225.257 133.282 225.713 132.371 226.299 131.698C226.885 131.025 227.913 130.615 228.454 131.34L227.993 127.25C228.921 127.53 229.888 127.57 230.83 127.366C231.771 127.162 232.666 126.719 233.452 126.066L227.499 123.655C227.291 123.593 227.1 123.47 226.942 123.298C226.509 122.739 226.939 121.869 227.291 121.234C228.133 119.714 228.274 117.211 226.89 116.455C225.944 115.939 224.86 116.559 223.952 117.165L219.607 120.069C219.469 121.059 220.479 121.621 221.105 122.288C221.483 122.691 221.751 123.222 221.874 123.812C221.996 124.401 221.966 125.021 221.789 125.59C221.612 126.159 221.295 126.651 220.881 127C220.466 127.35 219.974 127.541 219.467 127.548C219.753 127.994 219.952 128.511 220.049 129.062C220.145 129.612 220.138 130.182 220.026 130.728L217.102 130.981C216.774 131.06 216.433 130.98 216.154 130.759C215.841 130.426 215.883 129.842 215.811 129.349C215.636 128.157 214.662 127.322 213.669 127.108C212.675 126.893 211.659 127.168 210.675 127.439C210.257 127.619 209.799 127.606 209.388 127.403C209.153 127.22 208.974 126.95 208.879 126.633C208.448 125.379 208.851 123.906 209.544 122.834C210.237 121.762 211.185 120.978 212.037 120.086C214.073 117.944 215.57 115.162 216.357 112.054C217.966 111.245 219.633 110.147 221.242 109.339C223.724 107.833 226.506 107.186 229.278 107.473L234.728 107.597C236.342 107.634 238 107.682 239.492 108.419C240.984 109.157 242.296 110.752 242.399 112.683C242.43 112.901 242.414 113.126 242.353 113.335C242.292 113.544 242.187 113.732 242.049 113.879C241.838 114.017 241.6 114.081 241.36 114.065C239.855 114.129 239.213 114.578 237.708 114.642Z" fill="#3F3D56"/>
<path d="M194.261 135.119C194.474 134.878 194.627 134.57 194.704 134.231C194.78 133.892 194.778 133.534 194.696 133.196C194.177 132.957 193.614 132.895 193.068 133.019C192.522 133.142 192.016 133.446 191.606 133.896C191.283 134.287 191.005 134.728 190.779 135.207C190.062 136.608 189.429 138.281 189.844 139.847C189.878 140.018 189.94 140.179 190.026 140.32C190.113 140.462 190.222 140.582 190.347 140.672C190.533 140.762 190.734 140.799 190.934 140.782C191.723 140.781 192.511 140.723 193.294 140.608C193.775 140.538 194.334 140.375 194.52 139.838C194.764 139.133 194.173 138.335 194.345 137.6C194.459 137.271 194.631 136.976 194.849 136.735C194.957 136.614 195.04 136.464 195.092 136.298C195.144 136.131 195.162 135.952 195.146 135.776C195.076 135.431 194.636 135.235 194.477 135.535" fill="#3F3D56"/>
<path d="M198.352 128.761C197.651 128.568 196.929 128.513 196.213 128.6C196.055 128.594 195.898 128.637 195.757 128.724C195.621 128.844 195.522 129.016 195.477 129.211C195.325 129.793 195.363 130.421 195.581 130.971C195.799 131.521 196.182 131.953 196.653 132.18C196.91 132.251 197.156 132.369 197.383 132.531C197.988 133.094 197.602 134.244 197.717 135.152C197.845 136.171 198.668 137.026 198.517 138.041C198.398 138.84 197.686 139.473 197.801 140.274C197.921 141.112 198.808 141.364 199.515 141.431C199.925 141.517 200.347 141.459 200.73 141.264C201.114 140.949 201.387 140.475 201.497 139.933C201.786 138.9 201.908 137.81 201.855 136.722C201.852 136.227 201.749 135.741 201.553 135.305C201.34 134.959 201.104 134.635 200.847 134.336C199.492 132.446 200.919 129.628 198.352 128.761Z" fill="#3F3D56"/>
<path opacity="0.8" d="M376.552 276.778C376.552 276.778 272.761 205.363 228.078 218.894C228.078 218.894 133.38 231.11 122.405 257.985C122.405 257.985 92.3027 145.224 81.3279 141.465" stroke="#6C63FF" stroke-width="2" stroke-miterlimit="10"/>
<path opacity="0.8" d="M122.405 257.985C139.808 202.356 296.592 140.713 296.592 140.713C274.329 147.479 228.078 218.894 228.078 218.894C228.078 218.894 130.244 133.572 81.3279 141.465C81.3279 141.465 296.749 149.922 376.552 276.778" stroke="#6C63FF" stroke-width="2" stroke-miterlimit="10"/>
<path d="M81.3279 146.915C83.839 146.915 85.8746 144.475 85.8746 141.465C85.8746 138.455 83.839 136.015 81.3279 136.015C78.8168 136.015 76.7811 138.455 76.7811 141.465C76.7811 144.475 78.8168 146.915 81.3279 146.915Z" fill="#6C63FF"/>
<path d="M122.405 263.435C124.916 263.435 126.952 260.995 126.952 257.985C126.952 254.975 124.916 252.534 122.405 252.534C119.894 252.534 117.859 254.975 117.859 257.985C117.859 260.995 119.894 263.435 122.405 263.435Z" fill="#6C63FF"/>
<path d="M296.592 146.163C299.103 146.163 301.139 143.723 301.139 140.713C301.139 137.703 299.103 135.263 296.592 135.263C294.081 135.263 292.045 137.703 292.045 140.713C292.045 143.723 294.081 146.163 296.592 146.163Z" fill="#6C63FF"/>
<path d="M376.552 282.228C379.063 282.228 381.099 279.788 381.099 276.778C381.099 273.768 379.063 271.328 376.552 271.328C374.041 271.328 372.005 273.768 372.005 276.778C372.005 279.788 374.041 282.228 376.552 282.228Z" fill="#6C63FF"/>
<path d="M228.078 224.344C230.589 224.344 232.624 221.904 232.624 218.894C232.624 215.884 230.589 213.444 228.078 213.444C225.566 213.444 223.531 215.884 223.531 218.894C223.531 221.904 225.566 224.344 228.078 224.344Z" fill="#6C63FF"/>
</g>
<defs>
<clipPath id="clip0_135_608">
<rect width="447" height="398" fill="white"/>
</clipPath>
</defs>
</svg>
